<svg id="footer-graphic-1" xmlns="http://www.w3.org/2000/svg" xmlns:xlink="http://www.w3.org/1999/xlink" width="131.964" height="161.644" viewBox="0 0 131.964 161.644">
  <defs>
    <linearGradient id="linear-gradient" x1="0.555" y1="0.057" x2="0.319" y2="1.177" gradientUnits="objectBoundingBox">
      <stop offset="0" stop-color="#94e2e4"/>
      <stop offset="0.147" stop-color="#91dee0"/>
      <stop offset="0.28" stop-color="#8ad3d5"/>
      <stop offset="0.409" stop-color="#7ec1c2"/>
      <stop offset="0.534" stop-color="#6da7a8"/>
      <stop offset="0.657" stop-color="#578587"/>
      <stop offset="0.779" stop-color="#3c5d5d"/>
      <stop offset="0.896" stop-color="#1d2d2e"/>
      <stop offset="0.995"/>
    </linearGradient>
    <radialGradient id="radial-gradient" cx="0.393" cy="-0.072" r="0.991" gradientTransform="translate(-0.116) scale(1.232 1)" gradientUnits="objectBoundingBox">
      <stop offset="0" stop-color="#9b9b9b"/>
      <stop offset="0.229" stop-color="#9b9b9b"/>
      <stop offset="0.437" stop-color="#9b9b9b"/>
      <stop offset="0.637" stop-color="#9b9b9b"/>
      <stop offset="0.831" stop-color="#9b9b9b"/>
      <stop offset="0.995" stop-color="#fff"/>
      <stop offset="1" stop-color="#fff"/>
    </radialGradient>
    <linearGradient id="linear-gradient-2" x1="0.5" y1="0.082" x2="0.5" y2="0.882" gradientUnits="objectBoundingBox">
      <stop offset="0" stop-color="#a8cbe5"/>
      <stop offset="0.229" stop-color="#abcde6"/>
      <stop offset="0.437" stop-color="#b6d3e9"/>
      <stop offset="0.637" stop-color="#c9deee"/>
      <stop offset="0.831" stop-color="#e2eef6"/>
      <stop offset="0.995" stop-color="#fff"/>
    </linearGradient>
  </defs>
  <g id="Group_95" data-name="Group 95" transform="translate(5.777 22.413)">
    <g id="Group_94" data-name="Group 94">
      <g id="Group_82" data-name="Group 82" transform="translate(0 62.212)">
        <g id="Group_80" data-name="Group 80">
          <path id="Path_174" data-name="Path 174" d="M376.25,438.176l-41.7-24.079c-2.079-1.2-2.746-7.321-.346-8.707L406.7,368.1c2.4-1.387,6.03-1.537,8.108-.337l43.11,19.987c2.078,1.2.414,7.388-1.985,8.774l-71.569,41.32C381.959,439.226,378.329,439.376,376.25,438.176Z" transform="translate(-332.671 -361.969)" fill="#9bc2e0"/>
          <path id="Path_175" data-name="Path 175" d="M455.785,393.075l-70.429,40.661-1.142.659c-2.4,1.387-6.028,1.536-8.109.337L334.4,410.65c-2.081-1.2-1.819-3.3.581-4.679l71.57-41.319c2.4-1.387,6.028-1.537,8.109-.337l4.462,2.578,37.244,21.5C458.441,389.591,458.184,391.688,455.785,393.075Z" transform="translate(-332.526 -363.505)" fill="#b5d3ea"/>
          <path id="Path_176" data-name="Path 176" d="M341.684,400.513l58.872-33.99a6.616,6.616,0,0,1,5.953-.247l41.55,23.99c1.526.881,1.335,2.419-.428,3.437L388.76,427.691a6.616,6.616,0,0,1-5.953.247L341.258,403.95C339.731,403.068,339.923,401.529,341.684,400.513Z" transform="translate(-329.301 -362.534)" fill="#eaf5fe"/>
          <path id="Path_177" data-name="Path 177" d="M385.089,427.249a4.288,4.288,0,0,1-2.094-.464L341.445,402.8c-.2-.117-.539-.356-.539-.643,0-.247.253-.683.966-1.095l58.873-33.989a5.916,5.916,0,0,1,2.876-.71,4.309,4.309,0,0,1,2.094.463l41.55,23.99c.2.116.539.354.539.642,0,.247-.253.683-.966,1.095l-58.872,33.99A5.926,5.926,0,0,1,385.089,427.249Z" transform="translate(-328.998 -362.231)" fill="#fedd00"/>
        </g>
        <path id="Path_178" data-name="Path 178" d="M384.214,434.395c-2.4,1.387-6.028,1.536-8.109.337L334.4,410.65c-2.081-1.2-1.819-3.3.581-4.679l71.57-41.319c2.4-1.387,6.028-1.537,8.109-.337Z" transform="translate(-332.526 -363.505)" opacity="0.2" fill="url(#linear-gradient)" style="mix-blend-mode: lighten;isolation: isolate"/>
        <path id="Path_179" data-name="Path 179" d="M403.544,375.279l-6.9-3.985c-.441-.255-.386-.7.124-.993a1.913,1.913,0,0,1,1.722-.072l6.9,3.985c.442.255.386.7-.123.993A1.913,1.913,0,0,1,403.544,375.279Z" transform="translate(-304.272 -360.583)" fill="#262424"/>
        <g id="Group_81" data-name="Group 81" transform="translate(111.552 20.075)">
          <path id="Path_180" data-name="Path 180" d="M413.415,379.679a2.838,2.838,0,0,1-2.565-.006.782.782,0,0,1-.007-1.481,2.834,2.834,0,0,1,2.565.006A.782.782,0,0,1,413.415,379.679Z" transform="translate(-409.592 -377.164)" fill="#02b6d7"/>
          <path id="Path_181" data-name="Path 181" d="M412.363,380.932a3.358,3.358,0,0,1-1.651-.409,1.492,1.492,0,0,1-.007-2.733,3.541,3.541,0,0,1,3.287,0,1.493,1.493,0,0,1,.009,2.734A3.321,3.321,0,0,1,412.363,380.932Zm-1.09-1.771c.023.01.069.055.162.11a2.137,2.137,0,0,0,1.842.006.548.548,0,0,0,.153-.12,1.724,1.724,0,0,0-.16-.108,2.151,2.151,0,0,0-1.842-.006A.611.611,0,0,0,411.273,379.161Z" transform="translate(-409.815 -377.388)" fill="#262424"/>
        </g>
      </g>
      <g id="Group_93" data-name="Group 93" transform="translate(41.949)">
        <path id="Path_182" data-name="Path 182" d="M389.643,386.369v22.9l-26.4,3.566V389.2l.519-.074a8.051,8.051,0,0,1,3.07-2.852l9.766-5c2.9-1.68,5.959-.882,8.474.568l.918.882a9.183,9.183,0,0,1,3.446,2.937A1.844,1.844,0,0,1,389.643,386.369Z" transform="translate(-360.984 -293.791)" opacity="0.29" fill="url(#radial-gradient)" style="mix-blend-mode: multiply;isolation: isolate"/>
        <g id="Group_92" data-name="Group 92">
          <g id="Group_91" data-name="Group 91">
            <g id="Group_83" data-name="Group 83" transform="translate(16.057)">
              <path id="Path_183" data-name="Path 183" d="M380.14,337.46a33.1,33.1,0,0,1,2.543-3.927,8.773,8.773,0,0,1,1.692-1.648,12.676,12.676,0,0,0,1.283-2.415,9.362,9.362,0,0,1-.972-1.706,13.036,13.036,0,0,1-.267-2.143s-1.018-1.3-.311-1.31.905.818.954,1.022a11.386,11.386,0,0,0,.6,1.173l.487-1.624s.921-4,1.223-4.088.418.016.367.723-.447,3.05-.447,3.05.207.351.335-.093.907-4.12,1.348-3.988.364.455.078,1.663-.7,2.587-.7,2.587.369.192.492-.142,1.027-3,1.353-3.086.515.148.2,1.044-.814,2.736-.814,2.736l.253.409s1.061-2.489,1.378-2.422.278.561.062,1.1-1.421,4.564-1.829,5.251a10.022,10.022,0,0,1-1.387,1.611s-2.319,6.686-3.175,8.015a3.2,3.2,0,0,1-2.853,1.3Z" transform="translate(-369.505 -320.482)" fill="#efc9a3"/>
              <path id="Path_184" data-name="Path 184" d="M372.912,341.821A4.016,4.016,0,0,1,373.956,338c1.706-1.829,8.4-4.3,8.445-4.47s1.563-2.331,1.563-2.331,3.549.562,4.178,1.353.681.98.668,1.129-6.484,7.868-9.495,9.94S373.234,342.984,372.912,341.821Z" transform="translate(-372.786 -315.703)" fill="#fff"/>
              <path id="Path_185" data-name="Path 185" d="M379.721,332.711s.156-1.945,1.29-2,4.26.683,4.886,2.02a1.982,1.982,0,0,1-.526,2.406c-.134.019-2.192.033-2.969-.787A10.43,10.43,0,0,0,379.721,332.711Z" transform="translate(-369.692 -315.921)" fill="#fecd46"/>
            </g>
            <g id="Group_90" data-name="Group 90" transform="translate(0 14.216)">
              <g id="Group_85" data-name="Group 85" transform="translate(15.1 37.576)">
                <g id="Group_84" data-name="Group 84" transform="translate(1.102 33.585)">
                  <path id="Path_186" data-name="Path 186" d="M378.972,380.3a5.748,5.748,0,0,0,2.924,2.331c1.348.373,3.314,1.466,3.645,2.917s-.1,2.087-1.889,2.461c-2.545.531-4.507-2.231-6.174-3.095s-3.943-1.093-4.458-2.338.6-1.79.709-2.8a19.228,19.228,0,0,0,3.751,1.07C378.382,380.879,378.345,380.551,378.972,380.3Z" transform="translate(-372.886 -379.414)" fill="#eaf5fe"/>
                  <path id="Path_187" data-name="Path 187" d="M378.986,380.005a5.726,5.726,0,0,0,2.932,2.2c1.312.357,3.309,1.468,3.624,2.917s-.1,2.094-1.891,2.461c-2.545.524-4.5-2.28-6.146-3.116s-3.98-1.032-4.48-2.234.6-1.725.709-2.707a19.241,19.241,0,0,0,3.758,1.009C378.394,380.57,378.361,380.257,378.986,380.005Z" transform="translate(-372.882 -379.525)" fill="#fedd00"/>
                  <path id="Path_188" data-name="Path 188" d="M377.433,379.858a27.149,27.149,0,0,0,1.994,1.855c.563.373,1.968,1.139.785,1.609s-3.281-1.445-3.8-2.557C376.1,380.094,376.991,379.979,377.433,379.858Z" transform="translate(-371.341 -379.376)" fill="#fff"/>
                </g>
                <path id="Path_189" data-name="Path 189" d="M381.4,356.3c.4,3.522.12,2.227.2,6.457s-.853,11.032-1.2,14.566-1.377,11.9-.7,13.5c.411.973-2.785.774-3.734.477s-2.249-.6-2.574-1.384a2.986,2.986,0,0,1,0-2.583c.453-.534-1.362-7.382-1.258-8.429s.729-2.967.879-3.994c-.306-.759-.156-3.168-.376-4.065.61-3.692,1.453-2.159,1.8-5.392s.168-3.374.46-6.068a9.876,9.876,0,0,0,5.6-1.686C381.564,356.794,381.078,357.4,381.4,356.3Z" transform="translate(-372.124 -356.299)" fill="#3e3e3e"/>
              </g>
              <g id="Group_86" data-name="Group 86" transform="translate(2.461 35.775)">
                <path id="Path_190" data-name="Path 190" d="M369.252,386.291c1.041,1.627,3.12,3.055,4.413,4.221s1.638,1.74.739,3.371-4.634.759-5.965-.04-4.248-4.72-4.49-5.154c-1.115-2.007-.282-1.219-.043-2.571a18.561,18.561,0,0,0,2.7.687A7.464,7.464,0,0,0,369.252,386.291Z" transform="translate(-363.383 -341.198)" fill="#eaf5fe"/>
                <path id="Path_191" data-name="Path 191" d="M369.238,386.253a15.457,15.457,0,0,0,3.663,4.258c1.181,1.072,2.351,1.591,1.4,3.265s-4.519.96-6-.081a18.2,18.2,0,0,1-4.447-5.388c-.788-2.137.334-1.822.515-3.452.711.717,1.258,1.609,2.218,1.865S368.306,386.4,369.238,386.253Z" transform="translate(-363.297 -341.76)" fill="#fedd00"/>
                <path id="Path_192" data-name="Path 192" d="M367.57,385.8c.67,1.152,2.032,2.739,2.4,3.946s-1.369.826-2.036.129a7.452,7.452,0,0,1-1.631-3.841C366.616,385.757,367.223,385.2,367.57,385.8Z" transform="translate(-362.08 -341.459)" fill="#fff"/>
                <path id="Path_193" data-name="Path 193" d="M379.86,357.784c.205,4.622-1.313,14.212-3.08,17.683s-1.7,4.01-2.81,6.206-2.382,1.87-2.755,3.974-1.073,3.382-1.348,5.666.617,6.319-.47,8.426-3.343.938-4.687.22-.37-.366-.385-1.81-1.113-11.665-.442-13.676,1.536-2.562,2.1-4.033a15.477,15.477,0,0,0,.963-3.2c.343-1.583-.107-.448-.207-3.388s-.733-9.1.1-12.112,1.2-4.484,1.894-6.683c1.839.778,3.187,1.433,5.1,2.05S377.964,357.234,379.86,357.784Z" transform="translate(-363.257 -355.053)" fill="#3b3a3a"/>
              </g>
              <g id="Group_88" data-name="Group 88" transform="translate(6.047 10.515)">
                <path id="Path_194" data-name="Path 194" d="M377.92,337.7c2.052.143,2.415-.909,3.689,1.466s3.835,8.307,3.511,11.33a68.174,68.174,0,0,0-.729,8.761,23.544,23.544,0,0,0,.21,3c.239,2.013-1.91,5.151-4.185,6.092s-6.16-.116-8.119-.648-2.48-.82-3.521-2.129c-.833-1.019-2.038-2.262-1.284-3.739s1.067-2.045.464-3.87a42.735,42.735,0,0,1-1.476-5.537c-.437-2.2-1.165-6.044.064-8.251s4.306-3.3,5.433-5.53C374.286,338.728,375.868,337.552,377.92,337.7Z" transform="translate(-365.863 -337.585)" fill="#fedd00"/>
                <g id="Group_87" data-name="Group 87" transform="translate(11.655 6.657)">
                  <path id="Path_195" data-name="Path 195" d="M374.577,342.188a35.7,35.7,0,0,1,2.318,6.588c1.056,3.459,1.393,11.747,1.31,16-.3.506-.482.133-.84.438.035-5.32-.272-12.142-1.813-17.06-.641-2.045-.934-3.838-1.628-5.547A1.193,1.193,0,0,0,374.577,342.188Z" transform="translate(-373.923 -342.188)" fill="#fedd00"/>
                </g>
                <path id="Path_196" data-name="Path 196" d="M377.4,351.269a10.717,10.717,0,0,0,1.864-.573,6.179,6.179,0,0,0,1.18-1.74,9.423,9.423,0,0,0-.733-4.986,9.565,9.565,0,0,1-2.972,2.546A42.382,42.382,0,0,0,377.4,351.269Z" transform="translate(-361.012 -334.736)" fill="#fedd00"/>
                <path id="Path_197" data-name="Path 197" d="M372.072,354.617a9.913,9.913,0,0,0,2.353-.1,8.3,8.3,0,0,0,1.378-1.861,7.75,7.75,0,0,0-.458-5.062,8.2,8.2,0,0,1-3.965,2.583A23.624,23.624,0,0,0,372.072,354.617Z" transform="translate(-363.403 -333.123)" fill="#fedd00"/>
              </g>
              <path id="Path_198" data-name="Path 198" d="M376.22,338.763c-.918-.577-4.781-.12-4.781-.12s-2.02.256-1.857,1.271a13.145,13.145,0,0,0,1.372,3.81c.281.133,5.265.542,5.265.542S377.885,339.811,376.22,338.763Z" transform="translate(-358.161 -326.674)" fill="#e8a798"/>
              <path id="Path_199" data-name="Path 199" d="M375.912,337.824a10.413,10.413,0,0,0-2.6-.075,5.817,5.817,0,0,1,3.1,2.671c.645,1.343.664,3.258.218,3.77-.67.768-4.282-1.135-5.488-2.314s-.557-1.366-.622-2.236.22-1.257-.555-1.177-1.569,2.169-1.241,3.189,3.284,4.162,3.885,5.187c.573-.175.113-1.93.7-2.039l3.323.163a6.666,6.666,0,0,0,2.782-2.707C379.022,341.936,379.716,338.814,375.912,337.824Z" transform="translate(-358.573 -327.018)" fill="#fecd46"/>
              <path id="Path_200" data-name="Path 200" d="M376.219,338.077v4.532a3.5,3.5,0,0,1-2.1,1.261,3.965,3.965,0,0,1-3.478-2.116c-.448-1.137-.532-1.414-.532-1.414a16.985,16.985,0,0,1,0-2.011,5.024,5.024,0,0,0-.535-2.2Z" transform="translate(-358.161 -327.718)" fill="#e8a798"/>
              <path id="Path_201" data-name="Path 201" d="M376.915,332.411c.15.107,1.475.992,1.507,1.64s.111.6-.01.914.781,1.053,1.152,2.426a11.333,11.333,0,0,1-.019,3.985c-.2.026-.233.379-.753.464s-4.75.082-5.365-.372c-.176-.13-1.041-.9-1.041-.9s-2.069.563-2.606-1.112c-.215-.669.552-.466.552-.466s-3.945-4.208-1.2-6.885C372.692,328.643,374.952,331.019,376.915,332.411Z" transform="translate(-358.791 -330.313)" fill="#f0baae"/>
              <path id="Path_202" data-name="Path 202" d="M366.149,357.057l1,7.521,2.337,1.466a8.394,8.394,0,0,1,1.138,2.186c.327,1.3.191,1.5.191,1.5l-1.345-.776s-.578-.555-.772-.447c-.39.22-.038,1.79-.038,1.79l1.027.811-1.341,1.238a15.654,15.654,0,0,1-3.077-.625c-.075-.23-.73-5.378-.807-5.677s-.628-1.027-.616-1.56-1.486-5.962-1.552-6.77-.124-1.34.106-1.393S365.773,355.847,366.149,357.057Z" transform="translate(-361.432 -318.762)" fill="#efc9a3"/>
              <path id="Path_203" data-name="Path 203" d="M372.285,345.251s-.389,4.065-1.265,5.2-4.5,6.568-4.259,7.881.818,5.165.338,5.433-2.192,1.281-3.245.82-1.62-.771-1.972-.963-.21-6.033.192-6.652,1.461-5.785,2.121-7.19,3.686-7.553,4.743-7.933S372.205,341.96,372.285,345.251Z" transform="translate(-361.681 -325.218)" fill="#fff"/>
              <g id="Group_89" data-name="Group 89" transform="translate(7.167 36.587)">
                <path id="Path_204" data-name="Path 204" d="M383.964,356.036s-.983,2.856-5.13,3.771-7.9-1.265-8.886-1.751a16.589,16.589,0,0,1-2.852-2.441l-.458,1.608a12.641,12.641,0,0,0,11.126,4.193c4.943-.47,6.28-3.536,6.28-3.536Z" transform="translate(-366.638 -355.615)" fill="#9b9b9b"/>
                <path id="Path_205" data-name="Path 205" d="M377.977,357.886l.192,1.338a.461.461,0,0,1-.292.5,8.042,8.042,0,0,1-1.377.442c-.246-.01-.121-.188-.121-.188l1.029-.4a.462.462,0,0,0,.292-.476l-.068-.664a.342.342,0,0,0-.445-.294c-.428.136-1.038.331-1,.321.052-.014-.276-.349.194-.535a9.572,9.572,0,0,1,1.186-.325A.343.343,0,0,1,377.977,357.886Z" transform="translate(-362.409 -354.734)" fill="#9bc2e0"/>
                <path id="Path_206" data-name="Path 206" d="M377.929,358.1l-1.062.55.018.173,1.06-.535Z" transform="translate(-362.076 -354.508)" fill="#ddedf9"/>
              </g>
            </g>
          </g>
        </g>
      </g>
    </g>
    <path id="Path_207" data-name="Path 207" d="M361.933,355.591a2.293,2.293,0,0,0,2.26,2.707c2.629.116,3.209-1.673,3.209-1.673s.738-.594.577,1.679-2.35,3.217-4.465,2.745S360.816,356.236,361.933,355.591Z" transform="translate(-319.868 -304.822)" fill="#fecd46"/>
    <path id="Path_208" data-name="Path 208" d="M375.493,332.925a5.7,5.7,0,0,1-.654,3.174c-.807,1.037-1.19,1.388-1.307,2.347s.678,3.836-.273,2.9a11.225,11.225,0,0,0-2.9-1.737s-3.912-1.468-2.506-4.574,2.992-4.284,4.1-4.565,4.838-1.806,5.2,1.494C377.3,333.345,375.493,332.925,375.493,332.925Z" transform="translate(-317.113 -316.291)" fill="#3b3a3a"/>
  </g>
  <g id="Group_96" data-name="Group 96" transform="translate(76.38 113.92)">
    <path id="Path_209" data-name="Path 209" d="M381.7,383.763v.738a1.81,1.81,0,0,0-.205-.713Z" transform="translate(-381.497 -383.763)" fill="url(#linear-gradient-2)" style="mix-blend-mode: multiply;isolation: isolate"/>
  </g>
  <g id="Group_97" data-name="Group 97" transform="translate(12.906 35.219)">
    <path id="Path_210" data-name="Path 210" d="M369.629,354.836,340.941,371.4c-1.845,1.064-3.34-.066-3.34-2.526v-16.19a8,8,0,0,1,3.34-6.383l28.688-16.563c1.845-1.064,3.34.067,3.34,2.526v16.19A8,8,0,0,1,369.629,354.836Z" transform="translate(-337.601 -329.337)" fill="#ddedf9"/>
    <path id="Path_211" data-name="Path 211" d="M358.046,343.433l-17.238,9.953V348.05l17.238-9.953Z" transform="translate(-336.171 -325.43)" fill="#70ce35"/>
    <path id="Path_212" data-name="Path 212" d="M358.046,349.84l-17.238,9.953v-5.336l17.238-9.953Z" transform="translate(-336.171 -322.573)" fill="#70ce35"/>
  </g>
  <g id="Group_98" data-name="Group 98" transform="translate(85.733 0)">
    <path id="Path_213" data-name="Path 213" d="M419.993,330.48l-28.688,16.563c-1.845,1.066-3.34-.065-3.34-2.525v-16.19a8,8,0,0,1,3.34-6.383l28.688-16.563c1.845-1.066,3.34.065,3.34,2.525V324.1A8,8,0,0,1,419.993,330.48Z" transform="translate(-387.965 -304.982)" fill="#ddedf9"/>
    <path id="Path_214" data-name="Path 214" d="M408.411,319.078l-17.238,9.953v-5.336l17.238-9.953Z" transform="translate(-386.534 -301.074)" fill="#70ce35"/>
    <path id="Path_215" data-name="Path 215" d="M408.411,325.484l-17.238,9.953V330.1l17.238-9.953Z" transform="translate(-386.534 -298.217)" fill="#70ce35"/>
    <path id="Path_216" data-name="Path 216" d="M410.834,319.257l-3.6,2.077-1.938-9.9,7.128-3.58Z" transform="translate(-380.233 -303.703)" fill="#70ce35"/>
    <path id="Path_217" data-name="Path 217" d="M410.479,321.872l-3.839,2.216v-4.405l3.839-2.216Z" transform="translate(-379.636 -299.413)" fill="#70ce35"/>
  </g>
  <g id="Group_100" data-name="Group 100" transform="translate(86.855 41.113)">
    <g id="Group_99" data-name="Group 99">
      <path id="Path_218" data-name="Path 218" d="M420.769,358.912l-28.688,16.563c-1.845,1.066-3.34-.065-3.34-2.525V356.76a8,8,0,0,1,3.34-6.383l28.688-16.563c1.845-1.066,3.34.065,3.34,2.525v16.19A8,8,0,0,1,420.769,358.912Z" transform="translate(-388.741 -333.414)" fill="#ddedf9"/>
      <path id="Path_219" data-name="Path 219" d="M409.187,347.51l-17.238,9.953v-5.336l17.238-9.953Z" transform="translate(-387.31 -329.506)" fill="#70ce35"/>
      <path id="Path_220" data-name="Path 220" d="M409.187,353.916l-17.238,9.953v-5.336l17.238-9.953Z" transform="translate(-387.31 -326.649)" fill="#70ce35"/>
    </g>
    <path id="Path_221" data-name="Path 221" d="M405.81,348.571s1.738-3.352,2-2.992,2.724,4.8,2.724,4.8l2.16-12.261,2.389-.4-4.549,17.756Z" transform="translate(-381.128 -331.493)" fill="#70ce35"/>
  </g>
  <g id="Group_102" data-name="Group 102" transform="translate(0 78.262)">
    <g id="Group_101" data-name="Group 101">
      <path id="Path_222" data-name="Path 222" d="M360.7,384.6l-28.688,16.563c-1.844,1.066-3.34-.065-3.34-2.526V382.45a8,8,0,0,1,3.34-6.383L360.7,359.5c1.845-1.064,3.342.066,3.342,2.526v16.19A8,8,0,0,1,360.7,384.6Z" transform="translate(-328.676 -359.104)" fill="#ddedf9"/>
      <path id="Path_223" data-name="Path 223" d="M349.122,373.2l-17.238,9.953v-5.336l17.238-9.953Z" transform="translate(-327.245 -355.197)" fill="#70ce35"/>
      <path id="Path_224" data-name="Path 224" d="M349.122,379.607l-17.238,9.953v-5.336l17.238-9.953Z" transform="translate(-327.245 -352.34)" fill="#70ce35"/>
    </g>
    <path id="Path_225" data-name="Path 225" d="M346.424,365.478l7.082,5.317-6.018,10.683-1.064-2.42,4.224-6.959-5.083-3.882Z" transform="translate(-321.143 -356.261)" fill="#70ce35"/>
  </g>
</svg>
