<svg id="footer-graphic-2" xmlns="http://www.w3.org/2000/svg" width="144.609" height="144.139" viewBox="0 0 144.609 144.139">
  <path id="Path_226" data-name="Path 226" d="M103.53,417.933l2.086,1.242,4.184,2.416,49.891-28.767s3.173-3.56,3.914-4.075,2.664-1.429,2.717-1.816.448-.7,0-.69a39.976,39.976,0,0,0-4.019,1.633l-5.515.105Z" transform="translate(-21.923 -277.451)" fill="#ddedec" style="mix-blend-mode: multiply;isolation: isolate"/>
  <path id="Path_227" data-name="Path 227" d="M53.894,394.062a14.687,14.687,0,0,1-13.287.049c-3.692-2.105-3.729-5.54-.083-7.672a14.687,14.687,0,0,1,13.287-.047C57.5,388.5,57.539,391.931,53.894,394.062Z" transform="translate(-32.27 -277.674)" fill="#ddedec" style="mix-blend-mode: multiply;isolation: isolate"/>
  <g id="Group_110" data-name="Group 110" transform="translate(0 0)">
    <path id="Path_228" data-name="Path 228" d="M159.962,380.989H155.9l-71.791-41.5a4.421,4.421,0,0,0-3.975.164l-43.283,24.99h-3.8v2.67a1.174,1.174,0,0,0,.688,1.258L108.9,412.025c1.019.588,4.336,1.347,5.512.668l44.577-27.456c.778-.45,1.094-1.051.926-1.578C159.962,383.659,159.962,380.989,159.962,380.989Z" transform="translate(-33.024 -284.875)" fill="#9bc2e0"/>
    <g id="Group_104" data-name="Group 104" transform="translate(0.021 51.242)">
      <path id="Path_229" data-name="Path 229" d="M108.9,409.455,33.729,366c-1.019-.588-.89-1.616.286-2.294l46.114-26.625a4.417,4.417,0,0,1,3.975-.164l75.167,43.453c1.02.588.891,1.615-.285,2.294l-44.577,27.457C113.233,410.8,109.916,410.043,108.9,409.455Z" transform="translate(-33.042 -336.522)" fill="#b5d3ea"/>
      <path id="Path_230" data-name="Path 230" d="M118.28,398.748,49.029,358.712c-.87-.5-.762-1.383.244-1.964l30.119-17.3a3.785,3.785,0,0,1,3.4-.141l69.25,40.037c.872.5.763,1.382-.244,1.963l-30.119,17.3A3.779,3.779,0,0,1,118.28,398.748Z" transform="translate(-30.618 -336.137)" fill="#d0e4f4"/>
    </g>
    <g id="Group_105" data-name="Group 105" transform="translate(20.096 55.219)">
      <path id="Path_231" data-name="Path 231" d="M73.8,341.959l2.81-1.623a2.985,2.985,0,0,1,2.684-.111l3.232,1.866c.689.4.6,1.091-.192,1.55l-2.81,1.623a2.98,2.98,0,0,1-2.685.111l-3.232-1.866C72.921,343.112,73.006,342.419,73.8,341.959Z" transform="translate(-46.803 -339.957)" fill="#9bc2e0"/>
      <path id="Path_232" data-name="Path 232" d="M79.37,345.175l2.81-1.623a2.98,2.98,0,0,1,2.685-.111l3.23,1.865c.689.4.6,1.091-.192,1.551l-2.81,1.622a2.984,2.984,0,0,1-2.685.112l-3.232-1.866C78.49,346.327,78.576,345.634,79.37,345.175Z" transform="translate(-45.926 -339.451)" fill="#9bc2e0"/>
      <path id="Path_233" data-name="Path 233" d="M84.939,348.39l2.81-1.623a2.987,2.987,0,0,1,2.685-.111l3.232,1.866c.688.4.6,1.091-.193,1.55l-2.81,1.623a2.985,2.985,0,0,1-2.684.111l-3.232-1.866C84.059,349.543,84.145,348.849,84.939,348.39Z" transform="translate(-45.05 -338.945)" fill="#9bc2e0"/>
      <path id="Path_234" data-name="Path 234" d="M90.508,351.605l2.81-1.622A2.984,2.984,0,0,1,96,349.871l3.232,1.866c.688.4.6,1.091-.193,1.551l-2.81,1.622a2.978,2.978,0,0,1-2.684.111l-3.232-1.865C89.628,352.758,89.714,352.065,90.508,351.605Z" transform="translate(-44.173 -338.439)" fill="#9bc2e0"/>
      <path id="Path_235" data-name="Path 235" d="M96.079,354.821l2.809-1.623a2.98,2.98,0,0,1,2.685-.111l3.232,1.866c.688.4.6,1.09-.193,1.55l-2.809,1.623a2.988,2.988,0,0,1-2.685.111l-3.232-1.866C95.2,355.974,95.283,355.28,96.079,354.821Z" transform="translate(-43.296 -337.932)" fill="#9bc2e0"/>
      <path id="Path_236" data-name="Path 236" d="M101.648,358.036l2.809-1.623a2.987,2.987,0,0,1,2.685-.111l3.232,1.866c.689.4.6,1.091-.193,1.55l-2.809,1.623a2.987,2.987,0,0,1-2.685.111l-3.232-1.866C100.766,359.189,100.852,358.495,101.648,358.036Z" transform="translate(-42.419 -337.426)" fill="#9bc2e0"/>
      <path id="Path_237" data-name="Path 237" d="M107.216,361.251l2.81-1.623a2.985,2.985,0,0,1,2.684-.111l3.232,1.866c.689.4.6,1.091-.192,1.551l-2.81,1.622a2.98,2.98,0,0,1-2.685.111l-3.232-1.865C106.336,362.4,106.421,361.711,107.216,361.251Z" transform="translate(-41.542 -336.92)" fill="#9bc2e0"/>
      <path id="Path_238" data-name="Path 238" d="M112.785,364.467l2.81-1.623a2.984,2.984,0,0,1,2.685-.111l3.23,1.866c.689.4.6,1.092-.192,1.55l-2.81,1.623a2.987,2.987,0,0,1-2.685.111l-3.232-1.866C111.9,365.62,111.99,364.926,112.785,364.467Z" transform="translate(-40.665 -336.414)" fill="#9bc2e0"/>
      <path id="Path_239" data-name="Path 239" d="M118.354,367.682l2.81-1.623a2.987,2.987,0,0,1,2.685-.111l3.23,1.866c.689.4.6,1.092-.192,1.55l-2.81,1.623a2.987,2.987,0,0,1-2.685.111l-3.232-1.866C117.474,368.835,117.559,368.141,118.354,367.682Z" transform="translate(-39.789 -335.907)" fill="#9bc2e0"/>
      <path id="Path_240" data-name="Path 240" d="M123.923,370.9l2.81-1.622a2.984,2.984,0,0,1,2.685-.112l3.232,1.866c.687.4.6,1.092-.193,1.551l-2.81,1.622a2.98,2.98,0,0,1-2.685.111l-3.23-1.865C123.043,372.05,123.129,371.357,123.923,370.9Z" transform="translate(-38.912 -335.401)" fill="#9bc2e0"/>
      <path id="Path_241" data-name="Path 241" d="M129.492,374.113l2.81-1.623a2.98,2.98,0,0,1,2.685-.111l3.232,1.866c.688.4.6,1.09-.193,1.55l-2.81,1.623a2.985,2.985,0,0,1-2.684.111l-3.232-1.866C128.612,375.266,128.7,374.572,129.492,374.113Z" transform="translate(-38.035 -334.895)" fill="#9bc2e0"/>
      <path id="Path_242" data-name="Path 242" d="M68.136,345.231l2.809-1.623a2.98,2.98,0,0,1,2.685-.111l5.151,2.973c.689.4.6,1.091-.192,1.551l-2.81,1.622a2.98,2.98,0,0,1-2.685.111l-5.151-2.973C67.254,346.384,67.34,345.69,68.136,345.231Z" transform="translate(-47.695 -339.442)" fill="#9bc2e0"/>
      <path id="Path_243" data-name="Path 243" d="M74.883,349.127l2.81-1.623a2.988,2.988,0,0,1,2.685-.111l3.232,1.866c.688.4.6,1.091-.193,1.55l-2.81,1.623a2.987,2.987,0,0,1-2.685.111l-3.23-1.866C74,350.28,74.089,349.586,74.883,349.127Z" transform="translate(-46.633 -338.829)" fill="#9bc2e0"/>
      <path id="Path_244" data-name="Path 244" d="M79.807,351.97l2.809-1.623a2.98,2.98,0,0,1,2.685-.111l3.232,1.865c.689.4.6,1.091-.192,1.551l-2.81,1.622a2.984,2.984,0,0,1-2.685.112l-3.232-1.866C78.927,353.123,79.012,352.429,79.807,351.97Z" transform="translate(-45.858 -338.381)" fill="#9bc2e0"/>
      <path id="Path_245" data-name="Path 245" d="M84.73,354.812l2.81-1.623a2.987,2.987,0,0,1,2.685-.111l3.232,1.866c.688.4.6,1.091-.193,1.551l-2.81,1.622a2.984,2.984,0,0,1-2.685.111l-3.23-1.866C83.85,355.965,83.936,355.271,84.73,354.812Z" transform="translate(-45.082 -337.934)" fill="#9bc2e0"/>
      <path id="Path_246" data-name="Path 246" d="M89.654,357.655l2.81-1.623a2.981,2.981,0,0,1,2.684-.111l3.232,1.866c.689.4.6,1.091-.192,1.55l-2.81,1.623a2.988,2.988,0,0,1-2.685.111l-3.232-1.866C88.774,358.808,88.859,358.114,89.654,357.655Z" transform="translate(-44.307 -337.486)" fill="#9bc2e0"/>
      <path id="Path_247" data-name="Path 247" d="M94.577,360.5l2.81-1.622a2.984,2.984,0,0,1,2.685-.112l3.232,1.866c.688.4.6,1.092-.193,1.551L100.3,363.8a2.98,2.98,0,0,1-2.685.111l-3.23-1.865C93.7,361.65,93.783,360.957,94.577,360.5Z" transform="translate(-43.532 -337.039)" fill="#9bc2e0"/>
      <path id="Path_248" data-name="Path 248" d="M99.5,363.34l2.809-1.623a2.987,2.987,0,0,1,2.685-.111l3.232,1.866c.689.4.6,1.091-.193,1.55l-2.809,1.623a2.987,2.987,0,0,1-2.685.111l-3.232-1.866C98.62,364.493,98.706,363.8,99.5,363.34Z" transform="translate(-42.757 -336.591)" fill="#9bc2e0"/>
      <path id="Path_249" data-name="Path 249" d="M104.424,366.182l2.81-1.622a2.98,2.98,0,0,1,2.685-.111l3.23,1.865c.689.4.6,1.092-.192,1.551l-2.81,1.622a2.984,2.984,0,0,1-2.685.112l-3.232-1.866C103.544,367.335,103.629,366.642,104.424,366.182Z" transform="translate(-41.982 -336.144)" fill="#9bc2e0"/>
      <path id="Path_250" data-name="Path 250" d="M109.348,369.025l2.809-1.623a2.987,2.987,0,0,1,2.685-.111l3.232,1.866c.689.4.6,1.091-.193,1.55l-2.809,1.623a2.987,2.987,0,0,1-2.685.111l-3.232-1.866C108.467,370.178,108.553,369.484,109.348,369.025Z" transform="translate(-41.207 -335.696)" fill="#9bc2e0"/>
      <path id="Path_251" data-name="Path 251" d="M114.271,371.867l2.81-1.622a2.98,2.98,0,0,1,2.685-.111L123,372c.689.4.6,1.092-.192,1.55L120,375.173a2.987,2.987,0,0,1-2.685.111l-3.232-1.866C113.391,373.021,113.476,372.327,114.271,371.867Z" transform="translate(-40.431 -335.248)" fill="#9bc2e0"/>
      <path id="Path_252" data-name="Path 252" d="M119.194,374.71l2.81-1.623a2.987,2.987,0,0,1,2.685-.111l3.232,1.866c.688.4.6,1.091-.193,1.55l-2.809,1.623a2.98,2.98,0,0,1-2.685.111L119,376.26C118.314,375.863,118.4,375.17,119.194,374.71Z" transform="translate(-39.656 -334.801)" fill="#9bc2e0"/>
      <path id="Path_253" data-name="Path 253" d="M70.328,353.04l2.81-1.623a2.987,2.987,0,0,1,2.685-.111l3.232,1.866c.688.4.6,1.092-.193,1.55l-2.81,1.623a2.984,2.984,0,0,1-2.685.111l-3.23-1.866C69.448,354.193,69.533,353.5,70.328,353.04Z" transform="translate(-47.35 -338.213)" fill="#9bc2e0"/>
      <path id="Path_254" data-name="Path 254" d="M75.214,355.861l2.809-1.623a2.984,2.984,0,0,1,2.685-.111l3.232,1.866c.689.4.6,1.091-.192,1.55l-2.81,1.623a2.988,2.988,0,0,1-2.685.111l-3.232-1.866C74.334,357.014,74.419,356.32,75.214,355.861Z" transform="translate(-46.581 -337.769)" fill="#9bc2e0"/>
      <path id="Path_255" data-name="Path 255" d="M80.1,358.681l2.81-1.622a2.98,2.98,0,0,1,2.685-.111l3.232,1.865c.688.4.6,1.091-.193,1.551l-2.809,1.622a2.984,2.984,0,0,1-2.685.112l-3.232-1.866C79.219,359.835,79.305,359.141,80.1,358.681Z" transform="translate(-45.812 -337.325)" fill="#9bc2e0"/>
      <path id="Path_256" data-name="Path 256" d="M84.985,361.5l2.81-1.623a2.987,2.987,0,0,1,2.685-.111l3.23,1.866c.689.4.6,1.091-.192,1.55l-2.81,1.623a2.98,2.98,0,0,1-2.685.111l-3.232-1.866C84.1,362.655,84.19,361.962,84.985,361.5Z" transform="translate(-45.042 -336.88)" fill="#9bc2e0"/>
      <path id="Path_257" data-name="Path 257" d="M89.872,364.323l2.809-1.623a2.987,2.987,0,0,1,2.685-.111l3.232,1.866c.689.4.6,1.091-.193,1.55L95.6,367.628a2.988,2.988,0,0,1-2.685.111l-3.232-1.866C88.99,365.476,89.076,364.782,89.872,364.323Z" transform="translate(-44.273 -336.436)" fill="#9bc2e0"/>
      <path id="Path_258" data-name="Path 258" d="M94.756,367.144l2.81-1.623a2.984,2.984,0,0,1,2.685-.111l3.232,1.866c.688.4.6,1.091-.193,1.55l-2.81,1.623a2.987,2.987,0,0,1-2.685.111l-3.23-1.866C93.876,368.3,93.962,367.6,94.756,367.144Z" transform="translate(-43.504 -335.992)" fill="#9bc2e0"/>
      <path id="Path_259" data-name="Path 259" d="M99.642,369.964l2.81-1.622a2.982,2.982,0,0,1,2.684-.112l3.232,1.866c.689.4.6,1.091-.192,1.551l-2.81,1.622a2.984,2.984,0,0,1-2.685.112l-3.232-1.866C98.762,371.117,98.847,370.424,99.642,369.964Z" transform="translate(-42.735 -335.548)" fill="#9bc2e0"/>
      <path id="Path_260" data-name="Path 260" d="M104.527,372.785l2.81-1.623a2.987,2.987,0,0,1,2.685-.111l3.232,1.866c.688.4.6,1.091-.193,1.55l-2.809,1.623a2.984,2.984,0,0,1-2.685.111l-3.232-1.866C103.647,373.938,103.733,373.244,104.527,372.785Z" transform="translate(-41.965 -335.104)" fill="#9bc2e0"/>
      <path id="Path_261" data-name="Path 261" d="M67.106,357.722l2.809-1.623a2.987,2.987,0,0,1,2.685-.111l3.232,1.866c.689.4.6,1.091-.193,1.55l-2.809,1.623a2.988,2.988,0,0,1-2.685.111l-3.232-1.866C66.224,358.875,66.31,358.181,67.106,357.722Z" transform="translate(-47.858 -337.476)" fill="#9bc2e0"/>
      <path id="Path_262" data-name="Path 262" d="M71.99,360.543l2.81-1.623a2.98,2.98,0,0,1,2.685-.111l3.23,1.866c.689.4.6,1.09-.192,1.55l-2.81,1.623a2.987,2.987,0,0,1-2.685.111l-3.23-1.866C71.11,361.7,71.2,361,71.99,360.543Z" transform="translate(-47.088 -337.032)" fill="#9bc2e0"/>
      <path id="Path_263" data-name="Path 263" d="M76.876,363.363l2.81-1.622a2.982,2.982,0,0,1,2.684-.112L85.6,363.5c.689.4.6,1.091-.192,1.551l-2.81,1.622a2.98,2.98,0,0,1-2.685.111l-3.232-1.865C76,364.516,76.081,363.823,76.876,363.363Z" transform="translate(-46.319 -336.587)" fill="#9bc2e0"/>
      <path id="Path_264" data-name="Path 264" d="M51.043,354.992l2.81-1.623a2.987,2.987,0,0,1,2.685-.111l3.232,1.866c.688.4.6,1.091-.193,1.55L56.768,358.3a2.987,2.987,0,0,1-2.685.111l-3.232-1.866C50.163,356.145,50.249,355.451,51.043,354.992Z" transform="translate(-50.386 -337.905)" fill="#9bc2e0"/>
      <path id="Path_265" data-name="Path 265" d="M55.929,357.813l2.81-1.623a2.987,2.987,0,0,1,2.685-.111l3.23,1.866c.689.4.6,1.091-.192,1.55l-2.81,1.623a2.987,2.987,0,0,1-2.685.111l-3.232-1.866C55.049,358.966,55.135,358.272,55.929,357.813Z" transform="translate(-49.617 -337.461)" fill="#9bc2e0"/>
      <path id="Path_266" data-name="Path 266" d="M60.815,360.633l2.81-1.622a2.981,2.981,0,0,1,2.684-.112l3.232,1.866c.689.4.6,1.092-.192,1.551l-2.81,1.622a2.984,2.984,0,0,1-2.685.112l-3.232-1.866C59.935,361.786,60.02,361.093,60.815,360.633Z" transform="translate(-48.848 -337.017)" fill="#9bc2e0"/>
      <path id="Path_267" data-name="Path 267" d="M97.056,381.557l2.81-1.623a2.985,2.985,0,0,1,2.684-.111l3.232,1.866c.689.4.6,1.091-.193,1.55l-2.809,1.623a2.98,2.98,0,0,1-2.685.111l-3.232-1.866C96.176,382.71,96.261,382.017,97.056,381.557Z" transform="translate(-43.142 -333.723)" fill="#9bc2e0"/>
      <path id="Path_268" data-name="Path 268" d="M101.941,384.378l2.81-1.623a2.988,2.988,0,0,1,2.685-.111l3.232,1.866c.688.4.6,1.091-.193,1.55l-2.81,1.623a2.987,2.987,0,0,1-2.685.111l-3.23-1.866C101.061,385.531,101.147,384.837,101.941,384.378Z" transform="translate(-42.373 -333.279)" fill="#9bc2e0"/>
      <path id="Path_269" data-name="Path 269" d="M106.827,387.2l2.81-1.622a2.978,2.978,0,0,1,2.684-.111l3.232,1.865c.689.4.6,1.091-.192,1.551l-2.81,1.622a2.984,2.984,0,0,1-2.685.112l-3.232-1.866C105.947,388.352,106.032,387.658,106.827,387.2Z" transform="translate(-41.603 -332.835)" fill="#9bc2e0"/>
      <path id="Path_270" data-name="Path 270" d="M81.761,366.184l2.81-1.623a2.987,2.987,0,0,1,2.685-.111l3.232,1.866c.688.4.6,1.091-.193,1.55l-2.81,1.623a2.981,2.981,0,0,1-2.684.111l-3.232-1.866C80.881,367.337,80.967,366.643,81.761,366.184Z" transform="translate(-45.55 -336.143)" fill="#9bc2e0"/>
      <path id="Path_271" data-name="Path 271" d="M86.647,369.005l2.81-1.623a2.984,2.984,0,0,1,2.685-.111l3.23,1.866c.689.4.6,1.092-.192,1.55l-2.81,1.623a2.987,2.987,0,0,1-2.685.111l-3.232-1.866C85.767,370.158,85.852,369.464,86.647,369.005Z" transform="translate(-44.781 -335.699)" fill="#9bc2e0"/>
      <path id="Path_272" data-name="Path 272" d="M91.534,371.825l2.81-1.622a2.978,2.978,0,0,1,2.684-.111l3.232,1.865c.689.4.6,1.091-.193,1.551l-2.809,1.622a2.984,2.984,0,0,1-2.685.112l-3.232-1.866C90.652,372.978,90.738,372.285,91.534,371.825Z" transform="translate(-44.011 -335.255)" fill="#9bc2e0"/>
      <path id="Path_273" data-name="Path 273" d="M96.418,374.646l2.81-1.623a2.987,2.987,0,0,1,2.685-.111l3.232,1.866c.688.4.6,1.091-.193,1.55l-2.81,1.623a2.98,2.98,0,0,1-2.685.111l-3.23-1.866C95.538,375.8,95.624,375.106,96.418,374.646Z" transform="translate(-43.242 -334.811)" fill="#9bc2e0"/>
      <path id="Path_274" data-name="Path 274" d="M101.3,377.467l2.81-1.623a2.985,2.985,0,0,1,2.684-.111l3.232,1.866c.689.4.6,1.091-.192,1.55l-2.81,1.623a2.987,2.987,0,0,1-2.685.111l-3.232-1.866C100.424,378.62,100.509,377.926,101.3,377.467Z" transform="translate(-42.473 -334.367)" fill="#9bc2e0"/>
      <path id="Path_275" data-name="Path 275" d="M109.413,375.606l2.81-1.623a2.987,2.987,0,0,1,2.685-.111l3.23,1.866c.689.4.6,1.091-.192,1.55l-2.81,1.623a2.987,2.987,0,0,1-2.685.111l-3.232-1.866C108.533,376.759,108.618,376.065,109.413,375.606Z" transform="translate(-41.196 -334.66)" fill="#9bc2e0"/>
      <path id="Path_276" data-name="Path 276" d="M123.826,377.384l2.81-1.623a2.987,2.987,0,0,1,2.685-.111l3.23,1.866c.689.4.6,1.092-.192,1.55l-2.81,1.623a2.983,2.983,0,0,1-2.685.111l-3.232-1.866C122.946,378.537,123.031,377.843,123.826,377.384Z" transform="translate(-38.927 -334.38)" fill="#9bc2e0"/>
      <path id="Path_277" data-name="Path 277" d="M62.468,348.5l2.81-1.623a2.987,2.987,0,0,1,2.685-.111l6.574,3.8c.688.4.6,1.09-.193,1.55l-2.81,1.623a2.988,2.988,0,0,1-2.685.111l-6.573-3.8C61.588,349.655,61.674,348.962,62.468,348.5Z" transform="translate(-48.588 -338.927)" fill="#9bc2e0"/>
      <path id="Path_278" data-name="Path 278" d="M106.5,380.464l2.81-1.623a2.987,2.987,0,0,1,2.685-.111l10.174,5.874c.688.4.6,1.092-.193,1.55l-2.81,1.623a2.984,2.984,0,0,1-2.685.111L106.3,382.014C105.615,381.617,105.7,380.923,106.5,380.464Z" transform="translate(-41.656 -333.895)" fill="#9bc2e0"/>
      <path id="Path_279" data-name="Path 279" d="M66.042,363.651l2.809-1.623a2.984,2.984,0,0,1,2.685-.111L104.5,380.948c.689.4.6,1.09-.192,1.55l-2.81,1.623a2.987,2.987,0,0,1-2.685.111L65.848,365.2C65.16,364.8,65.246,364.11,66.042,363.651Z" transform="translate(-48.025 -336.542)" fill="#9bc2e0"/>
      <path id="Path_280" data-name="Path 280" d="M56.8,351.774l2.81-1.623a2.978,2.978,0,0,1,2.684-.111l8.662,5c.688.4.6,1.091-.193,1.551l-2.81,1.622a2.98,2.98,0,0,1-2.685.111l-8.661-5C55.922,352.927,56.007,352.233,56.8,351.774Z" transform="translate(-49.48 -338.412)" fill="#9bc2e0"/>
      <path id="Path_281" data-name="Path 281" d="M114.331,378.445l2.81-1.622a2.984,2.984,0,0,1,2.685-.112l7.662,4.424c.689.4.6,1.093-.193,1.551l-2.809,1.623a2.987,2.987,0,0,1-2.685.111L114.139,380C113.451,379.6,113.537,378.9,114.331,378.445Z" transform="translate(-40.422 -334.213)" fill="#9bc2e0"/>
    </g>
    <g id="Group_106" data-name="Group 106" transform="translate(31.805 89.49)">
      <path id="Path_282" data-name="Path 282" d="M76.87,384.394l-11.739-6.778,9.315-5.378,11.739,6.778Z" transform="translate(-59.774 -369.146)" fill="#eaf5fe"/>
      <path id="Path_283" data-name="Path 283" d="M64.444,377.22l-3.289-1.9c-.965-.558-.844-1.53.271-2.174L66.7,370.1a4.186,4.186,0,0,1,3.765-.156l3.291,1.9Z" transform="translate(-60.503 -369.566)" fill="#eaf5fe"/>
      <path id="Path_284" data-name="Path 284" d="M76.5,384.178l3.289,1.9a4.182,4.182,0,0,0,3.765-.156l5.28-3.048c1.115-.644,1.235-1.617.271-2.174l-3.291-1.9Z" transform="translate(-57.985 -368.112)" fill="#eaf5fe"/>
    </g>
    <g id="Group_107" data-name="Group 107" transform="translate(49.109)">
      <path id="Path_285" data-name="Path 285" d="M153.241,387.371,78.369,342.176a2.866,2.866,0,0,1-1.3-2.243l-1.6-46.1c0-.824,2.178-1.9,2.9-1.488l76.025,44.014a2.866,2.866,0,0,1,1.3,2.243v46.85C155.694,386.273,153.96,387.786,153.241,387.371Z" transform="translate(-75.45 -292.25)" fill="#eaf5fe"/>
      <path id="Path_286" data-name="Path 286" d="M152.777,387.077,76.753,343.062a2.868,2.868,0,0,1-1.3-2.243v-46.85c0-.825.582-1.156,1.3-.742l76.025,44.014a2.864,2.864,0,0,1,1.3,2.243v46.85C154.078,387.159,153.5,387.491,152.777,387.077Z" transform="translate(-75.453 -292.124)" fill="#c2dcef"/>
      <path id="Path_287" data-name="Path 287" d="M77.421,338.383V297.916c0-1.145.809-1.6,1.807-1.027L149.69,337.68a3.975,3.975,0,0,1,1.8,3.11v40.468c0,1.145-.81,1.6-1.807,1.026L79.221,341.492A3.976,3.976,0,0,1,77.421,338.383Z" transform="translate(-75.143 -291.559)" fill="#fedd00"/>
    </g>
    <g id="Group_109" data-name="Group 109" transform="translate(20.591 55.1)">
      <path id="Path_288" data-name="Path 288" d="M77.1,344.771l-3.181-1.836c-.508-.294-.444-.807.142-1.146l2.865-1.654a2.206,2.206,0,0,1,1.985-.082l3.181,1.837c.508.293.444.806-.142,1.146l-2.865,1.653A2.206,2.206,0,0,1,77.1,344.771Z" transform="translate(-47.231 -339.855)" fill="#eaf5fe"/>
      <path id="Path_289" data-name="Path 289" d="M82.664,347.987l-3.181-1.837c-.508-.294-.444-.807.142-1.146l2.865-1.653a2.206,2.206,0,0,1,1.985-.083l3.181,1.837c.508.294.444.807-.142,1.146L84.649,347.9A2.206,2.206,0,0,1,82.664,347.987Z" transform="translate(-46.354 -339.348)" fill="#eaf5fe"/>
      <path id="Path_290" data-name="Path 290" d="M88.233,351.2l-3.181-1.836c-.508-.294-.444-.808.144-1.146l2.864-1.654a2.206,2.206,0,0,1,1.985-.082l3.181,1.836c.508.294.444.807-.142,1.146l-2.865,1.654A2.206,2.206,0,0,1,88.233,351.2Z" transform="translate(-45.477 -338.842)" fill="#eaf5fe"/>
      <path id="Path_291" data-name="Path 291" d="M93.8,354.417l-3.181-1.836c-.509-.294-.446-.807.142-1.146l2.864-1.654a2.206,2.206,0,0,1,1.985-.082l3.181,1.837c.508.293.444.807-.142,1.146l-2.865,1.653A2.2,2.2,0,0,1,93.8,354.417Z" transform="translate(-44.6 -338.336)" fill="#eaf5fe"/>
      <path id="Path_292" data-name="Path 292" d="M99.372,357.633,96.192,355.8c-.509-.294-.446-.807.142-1.146L99.2,353a2.2,2.2,0,0,1,1.984-.083l3.181,1.837c.509.294.444.807-.142,1.146l-2.865,1.654A2.2,2.2,0,0,1,99.372,357.633Z" transform="translate(-43.723 -337.83)" fill="#eaf5fe"/>
      <path id="Path_293" data-name="Path 293" d="M104.941,360.848l-3.181-1.836c-.509-.294-.446-.807.142-1.146l2.865-1.654a2.2,2.2,0,0,1,1.984-.082l3.181,1.836c.509.294.446.807-.142,1.146l-2.865,1.654A2.2,2.2,0,0,1,104.941,360.848Z" transform="translate(-42.847 -337.323)" fill="#eaf5fe"/>
      <path id="Path_294" data-name="Path 294" d="M110.51,364.064l-3.181-1.837c-.509-.294-.444-.807.142-1.146l2.865-1.654a2.2,2.2,0,0,1,1.984-.082l3.181,1.837c.509.293.446.807-.142,1.146l-2.864,1.653A2.209,2.209,0,0,1,110.51,364.064Z" transform="translate(-41.97 -336.817)" fill="#eaf5fe"/>
      <path id="Path_295" data-name="Path 295" d="M116.079,367.279l-3.181-1.837c-.508-.293-.444-.807.142-1.146l2.865-1.654a2.209,2.209,0,0,1,1.985-.082l3.181,1.837c.508.294.444.807-.144,1.146l-2.864,1.654A2.209,2.209,0,0,1,116.079,367.279Z" transform="translate(-41.093 -336.311)" fill="#eaf5fe"/>
      <path id="Path_296" data-name="Path 296" d="M121.648,370.494l-3.181-1.836c-.508-.294-.444-.807.142-1.146l2.865-1.654a2.206,2.206,0,0,1,1.985-.082l3.181,1.836c.508.294.444.807-.142,1.146l-2.865,1.654A2.206,2.206,0,0,1,121.648,370.494Z" transform="translate(-40.216 -335.805)" fill="#eaf5fe"/>
      <path id="Path_297" data-name="Path 297" d="M127.217,373.709l-3.181-1.836c-.508-.294-.444-.807.144-1.146l2.864-1.654a2.206,2.206,0,0,1,1.985-.082l3.181,1.837c.508.293.444.807-.142,1.146l-2.865,1.653A2.206,2.206,0,0,1,127.217,373.709Z" transform="translate(-39.339 -335.298)" fill="#eaf5fe"/>
      <path id="Path_298" data-name="Path 298" d="M132.787,376.925l-3.181-1.837c-.509-.293-.446-.807.142-1.146l2.864-1.653a2.206,2.206,0,0,1,1.985-.082l3.181,1.836c.508.294.444.807-.142,1.146l-2.865,1.654A2.2,2.2,0,0,1,132.787,376.925Z" transform="translate(-38.462 -334.792)" fill="#eaf5fe"/>
      <path id="Path_299" data-name="Path 299" d="M73.348,349.15l-5.1-2.945c-.509-.293-.446-.807.142-1.146l2.865-1.653a2.2,2.2,0,0,1,1.984-.082l5.1,2.945c.508.293.444.807-.142,1.146l-2.865,1.653A2.206,2.206,0,0,1,73.348,349.15Z" transform="translate(-48.123 -339.339)" fill="#eaf5fe"/>
      <path id="Path_300" data-name="Path 300" d="M78.177,351.939,75,350.1c-.508-.294-.444-.807.144-1.146L78,347.3a2.206,2.206,0,0,1,1.985-.082l3.181,1.836c.508.294.444.807-.142,1.146l-2.865,1.654A2.205,2.205,0,0,1,78.177,351.939Z" transform="translate(-47.06 -338.726)" fill="#eaf5fe"/>
      <path id="Path_301" data-name="Path 301" d="M83.1,354.782l-3.181-1.837c-.509-.294-.444-.807.142-1.146l2.865-1.653a2.207,2.207,0,0,1,1.984-.083l3.181,1.837c.509.294.446.807-.142,1.146L85.086,354.7A2.206,2.206,0,0,1,83.1,354.782Z" transform="translate(-46.285 -338.278)" fill="#eaf5fe"/>
      <path id="Path_302" data-name="Path 302" d="M88.024,357.624l-3.181-1.836c-.508-.294-.444-.807.144-1.146l2.864-1.654a2.206,2.206,0,0,1,1.985-.082l3.181,1.837c.508.293.444.807-.142,1.146l-2.865,1.653A2.206,2.206,0,0,1,88.024,357.624Z" transform="translate(-45.51 -337.831)" fill="#eaf5fe"/>
      <path id="Path_303" data-name="Path 303" d="M92.948,360.467l-3.181-1.837c-.509-.293-.444-.807.142-1.146l2.865-1.653a2.2,2.2,0,0,1,1.984-.082l3.181,1.836c.509.294.446.807-.142,1.146l-2.864,1.654A2.206,2.206,0,0,1,92.948,360.467Z" transform="translate(-44.735 -337.383)" fill="#eaf5fe"/>
      <path id="Path_304" data-name="Path 304" d="M97.871,363.309l-3.181-1.836c-.508-.294-.444-.807.142-1.146l2.865-1.654a2.206,2.206,0,0,1,1.985-.082l3.181,1.837c.508.293.444.807-.142,1.146l-2.865,1.653A2.206,2.206,0,0,1,97.871,363.309Z" transform="translate(-43.96 -336.936)" fill="#eaf5fe"/>
      <path id="Path_305" data-name="Path 305" d="M102.8,366.152l-3.181-1.836c-.509-.294-.444-.807.142-1.147l2.865-1.653a2.2,2.2,0,0,1,1.984-.082l3.181,1.836c.509.294.446.807-.142,1.146l-2.865,1.654A2.2,2.2,0,0,1,102.8,366.152Z" transform="translate(-43.184 -336.488)" fill="#eaf5fe"/>
      <path id="Path_306" data-name="Path 306" d="M107.718,368.995l-3.181-1.837c-.508-.294-.444-.807.142-1.146l2.865-1.654a2.209,2.209,0,0,1,1.985-.082l3.181,1.837c.508.294.444.807-.142,1.146l-2.865,1.653A2.206,2.206,0,0,1,107.718,368.995Z" transform="translate(-42.409 -336.041)" fill="#eaf5fe"/>
      <path id="Path_307" data-name="Path 307" d="M112.642,371.837,109.462,370c-.509-.294-.446-.807.142-1.146l2.865-1.654a2.2,2.2,0,0,1,1.984-.082l3.181,1.836c.509.294.446.807-.142,1.146l-2.865,1.654A2.2,2.2,0,0,1,112.642,371.837Z" transform="translate(-41.634 -335.593)" fill="#eaf5fe"/>
      <path id="Path_308" data-name="Path 308" d="M117.565,374.68l-3.181-1.837c-.508-.293-.444-.807.142-1.146l2.865-1.654a2.21,2.21,0,0,1,1.985-.082l3.181,1.837c.508.294.444.807-.142,1.146L119.55,374.6A2.209,2.209,0,0,1,117.565,374.68Z" transform="translate(-40.859 -335.146)" fill="#eaf5fe"/>
      <path id="Path_309" data-name="Path 309" d="M122.489,377.522l-3.181-1.836c-.509-.294-.446-.807.142-1.146l2.864-1.654a2.206,2.206,0,0,1,1.985-.082l3.181,1.836c.509.294.444.807-.142,1.146l-2.865,1.654A2.2,2.2,0,0,1,122.489,377.522Z" transform="translate(-40.084 -334.698)" fill="#eaf5fe"/>
      <path id="Path_310" data-name="Path 310" d="M73.622,355.852l-3.181-1.836c-.508-.294-.444-.807.142-1.146l2.865-1.654a2.206,2.206,0,0,1,1.985-.082l3.181,1.836c.508.294.444.807-.142,1.146l-2.865,1.654A2.206,2.206,0,0,1,73.622,355.852Z" transform="translate(-47.778 -338.11)" fill="#eaf5fe"/>
      <path id="Path_311" data-name="Path 311" d="M78.508,358.673l-3.181-1.837c-.509-.293-.446-.807.142-1.146l2.865-1.653a2.2,2.2,0,0,1,1.984-.082l3.181,1.836c.509.294.446.807-.142,1.146l-2.864,1.654A2.206,2.206,0,0,1,78.508,358.673Z" transform="translate(-47.008 -337.666)" fill="#eaf5fe"/>
      <path id="Path_312" data-name="Path 312" d="M83.393,361.494l-3.18-1.837c-.509-.294-.446-.807.142-1.146l2.864-1.654a2.209,2.209,0,0,1,1.985-.082l3.181,1.837c.509.294.444.807-.142,1.146l-2.865,1.654A2.209,2.209,0,0,1,83.393,361.494Z" transform="translate(-46.239 -337.222)" fill="#eaf5fe"/>
      <path id="Path_313" data-name="Path 313" d="M88.279,364.314,85.1,362.478c-.508-.294-.444-.807.142-1.146l2.865-1.654a2.206,2.206,0,0,1,1.985-.082l3.181,1.837c.508.293.444.807-.144,1.146l-2.864,1.653A2.206,2.206,0,0,1,88.279,364.314Z" transform="translate(-45.47 -336.778)" fill="#eaf5fe"/>
      <path id="Path_314" data-name="Path 314" d="M93.165,367.135,89.985,365.3c-.509-.294-.446-.807.142-1.146l2.865-1.654a2.2,2.2,0,0,1,1.984-.082l3.181,1.836c.509.294.446.807-.142,1.146l-2.865,1.654A2.2,2.2,0,0,1,93.165,367.135Z" transform="translate(-44.701 -336.333)" fill="#eaf5fe"/>
      <path id="Path_315" data-name="Path 315" d="M98.05,369.956l-3.181-1.837c-.508-.293-.444-.807.144-1.146l2.864-1.653a2.21,2.21,0,0,1,1.985-.083l3.181,1.837c.508.294.444.807-.142,1.146l-2.865,1.654A2.205,2.205,0,0,1,98.05,369.956Z" transform="translate(-43.931 -335.889)" fill="#eaf5fe"/>
      <path id="Path_316" data-name="Path 316" d="M102.936,372.777l-3.181-1.837c-.508-.294-.444-.807.142-1.146l2.865-1.654a2.207,2.207,0,0,1,1.984-.082l3.181,1.837c.509.293.446.807-.142,1.146l-2.864,1.654A2.213,2.213,0,0,1,102.936,372.777Z" transform="translate(-43.162 -335.445)" fill="#eaf5fe"/>
      <path id="Path_317" data-name="Path 317" d="M107.822,375.6l-3.181-1.836c-.509-.294-.446-.807.142-1.146l2.864-1.654a2.206,2.206,0,0,1,1.985-.082l3.181,1.837c.509.293.444.806-.142,1.145l-2.865,1.654A2.2,2.2,0,0,1,107.822,375.6Z" transform="translate(-42.393 -335.001)" fill="#eaf5fe"/>
      <path id="Path_318" data-name="Path 318" d="M70.4,360.534,67.219,358.7c-.509-.294-.446-.807.142-1.146l2.865-1.654a2.2,2.2,0,0,1,1.984-.082l3.181,1.836c.509.294.446.807-.142,1.146l-2.865,1.654A2.2,2.2,0,0,1,70.4,360.534Z" transform="translate(-48.285 -337.373)" fill="#eaf5fe"/>
      <path id="Path_319" data-name="Path 319" d="M75.284,363.355,72.1,361.518c-.508-.294-.444-.807.144-1.146l2.864-1.653a2.206,2.206,0,0,1,1.985-.082l3.181,1.836c.508.294.444.807-.142,1.146l-2.865,1.654A2.206,2.206,0,0,1,75.284,363.355Z" transform="translate(-47.516 -336.929)" fill="#eaf5fe"/>
      <path id="Path_320" data-name="Path 320" d="M80.17,366.175l-3.181-1.836c-.509-.294-.444-.807.142-1.146L80,361.539a2.2,2.2,0,0,1,1.984-.082l3.181,1.837c.509.294.446.807-.142,1.146l-2.864,1.653A2.206,2.206,0,0,1,80.17,366.175Z" transform="translate(-46.747 -336.485)" fill="#eaf5fe"/>
      <path id="Path_321" data-name="Path 321" d="M54.338,357.8l-3.181-1.836c-.509-.294-.446-.807.142-1.146l2.864-1.654a2.206,2.206,0,0,1,1.985-.082l3.181,1.836c.508.294.444.807-.142,1.146l-2.865,1.654A2.2,2.2,0,0,1,54.338,357.8Z" transform="translate(-50.814 -337.803)" fill="#eaf5fe"/>
      <path id="Path_322" data-name="Path 322" d="M59.223,360.625l-3.181-1.837c-.508-.293-.444-.807.142-1.146l2.865-1.653a2.21,2.21,0,0,1,1.985-.083l3.181,1.837c.508.294.444.807-.142,1.146l-2.865,1.654A2.206,2.206,0,0,1,59.223,360.625Z" transform="translate(-50.045 -337.358)" fill="#eaf5fe"/>
      <path id="Path_323" data-name="Path 323" d="M64.109,363.446l-3.181-1.837c-.509-.294-.444-.807.142-1.146l2.865-1.654a2.207,2.207,0,0,1,1.984-.082l3.181,1.837c.509.293.446.807-.142,1.146l-2.864,1.654A2.213,2.213,0,0,1,64.109,363.446Z" transform="translate(-49.275 -336.914)" fill="#eaf5fe"/>
      <g id="Group_108" data-name="Group 108" transform="translate(53.257 45.833)">
        <path id="Path_324" data-name="Path 324" d="M100.35,384.369l-3.181-1.836c-.509-.294-.444-.807.142-1.146l2.865-1.654a2.2,2.2,0,0,1,1.984-.082l3.181,1.836c.509.294.446.807-.142,1.147l-2.865,1.653A2.2,2.2,0,0,1,100.35,384.369Z" transform="translate(-96.826 -379.453)" fill="#eaf5fe"/>
        <path id="Path_325" data-name="Path 325" d="M105.235,387.19l-3.181-1.837c-.508-.293-.444-.807.144-1.146l2.864-1.653a2.206,2.206,0,0,1,1.985-.082l3.181,1.836c.508.294.444.807-.142,1.146l-2.865,1.654A2.206,2.206,0,0,1,105.235,387.19Z" transform="translate(-96.057 -379.008)" fill="#eaf5fe"/>
        <path id="Path_326" data-name="Path 326" d="M110.121,390.011l-3.181-1.837c-.508-.293-.444-.807.142-1.146l2.865-1.654a2.209,2.209,0,0,1,1.985-.082l3.18,1.837c.509.294.446.807-.142,1.146l-2.864,1.654A2.21,2.21,0,0,1,110.121,390.011Z" transform="translate(-95.288 -378.564)" fill="#eaf5fe"/>
      </g>
      <path id="Path_327" data-name="Path 327" d="M85.056,369l-3.181-1.836c-.509-.294-.446-.807.142-1.146l2.864-1.654a2.206,2.206,0,0,1,1.985-.082l3.181,1.836c.508.294.444.807-.142,1.146l-2.865,1.654A2.2,2.2,0,0,1,85.056,369Z" transform="translate(-45.977 -336.04)" fill="#eaf5fe"/>
      <path id="Path_328" data-name="Path 328" d="M89.941,371.817l-3.181-1.837c-.508-.293-.444-.807.142-1.146l2.865-1.653a2.205,2.205,0,0,1,1.985-.082l3.181,1.836c.508.294.444.807-.144,1.146l-2.864,1.654A2.206,2.206,0,0,1,89.941,371.817Z" transform="translate(-45.208 -335.596)" fill="#eaf5fe"/>
      <path id="Path_329" data-name="Path 329" d="M94.827,374.638,91.647,372.8c-.509-.294-.444-.807.142-1.146L94.654,370a2.207,2.207,0,0,1,1.984-.082l3.181,1.837c.509.294.446.807-.142,1.146l-2.864,1.654A2.209,2.209,0,0,1,94.827,374.638Z" transform="translate(-44.439 -335.152)" fill="#eaf5fe"/>
      <path id="Path_330" data-name="Path 330" d="M99.712,377.458l-3.181-1.836c-.508-.294-.444-.807.144-1.146l2.864-1.654a2.206,2.206,0,0,1,1.985-.082l3.181,1.837c.508.293.444.807-.142,1.146l-2.865,1.653A2.206,2.206,0,0,1,99.712,377.458Z" transform="translate(-43.67 -334.708)" fill="#eaf5fe"/>
      <path id="Path_331" data-name="Path 331" d="M104.6,380.279l-3.181-1.836c-.508-.294-.444-.807.142-1.146l2.865-1.654a2.206,2.206,0,0,1,1.985-.082l3.18,1.836c.509.294.446.807-.142,1.146l-2.864,1.654A2.206,2.206,0,0,1,104.6,380.279Z" transform="translate(-42.9 -334.264)" fill="#eaf5fe"/>
      <path id="Path_332" data-name="Path 332" d="M112.707,378.418l-3.181-1.837c-.508-.293-.444-.806.142-1.145l2.865-1.654a2.206,2.206,0,0,1,1.985-.082l3.181,1.836c.508.294.444.807-.142,1.146l-2.865,1.654A2.205,2.205,0,0,1,112.707,378.418Z" transform="translate(-41.624 -334.557)" fill="#eaf5fe"/>
      <path id="Path_333" data-name="Path 333" d="M127.12,380.2l-3.181-1.836c-.508-.294-.444-.807.142-1.146l2.865-1.654a2.206,2.206,0,0,1,1.985-.082l3.181,1.837c.508.293.444.807-.142,1.146l-2.865,1.653A2.206,2.206,0,0,1,127.12,380.2Z" transform="translate(-39.354 -334.277)" fill="#eaf5fe"/>
      <path id="Path_334" data-name="Path 334" d="M69.106,353.244l-6.525-3.766c-.508-.294-.444-.807.142-1.146l2.865-1.654a2.205,2.205,0,0,1,1.985-.082l6.523,3.766c.508.294.444.807-.142,1.146l-2.865,1.654A2.2,2.2,0,0,1,69.106,353.244Z" transform="translate(-49.015 -338.824)" fill="#eaf5fe"/>
      <path id="Path_335" data-name="Path 335" d="M116.732,387.284l-10.123-5.844c-.508-.294-.444-.807.142-1.146l2.865-1.654a2.206,2.206,0,0,1,1.985-.082l10.123,5.845c.508.293.444.807-.142,1.145l-2.865,1.654A2.206,2.206,0,0,1,116.732,387.284Z" transform="translate(-42.083 -333.792)" fill="#eaf5fe"/>
      <path id="Path_336" data-name="Path 336" d="M99.066,383.628l-32.911-19c-.509-.294-.446-.807.142-1.146l2.865-1.653a2.207,2.207,0,0,1,1.984-.083l32.912,19c.508.294.444.807-.144,1.146l-2.864,1.654A2.206,2.206,0,0,1,99.066,383.628Z" transform="translate(-48.453 -336.439)" fill="#eaf5fe"/>
      <path id="Path_337" data-name="Path 337" d="M65.527,357.72l-8.611-4.971c-.508-.294-.444-.807.142-1.146l2.865-1.653a2.2,2.2,0,0,1,1.984-.082l8.611,4.971c.508.293.444.807-.142,1.146l-2.865,1.653A2.2,2.2,0,0,1,65.527,357.72Z" transform="translate(-49.907 -338.309)" fill="#eaf5fe"/>
      <path id="Path_338" data-name="Path 338" d="M122.057,383.816l-7.611-4.395c-.509-.294-.446-.807.142-1.146l2.864-1.654a2.206,2.206,0,0,1,1.985-.082l7.611,4.395c.509.294.446.807-.142,1.146l-2.865,1.654A2.2,2.2,0,0,1,122.057,383.816Z" transform="translate(-40.849 -334.11)" fill="#eaf5fe"/>
    </g>
  </g>
  <g id="Group_114" data-name="Group 114" transform="translate(0.387 47.164)">
    <path id="Path_339" data-name="Path 339" d="M47.72,385.814l.509-.764a1.876,1.876,0,0,1-.255,2.255,6.989,6.989,0,0,1-3.092,1.492,7.366,7.366,0,0,0-1.565.664v.825s-1.782,1.493-2.91,1.274a2.814,2.814,0,0,1-1.711-1.127l-.218-1.164L41.936,388Z" transform="translate(-32.553 -324.802)" fill="#3b3a3a"/>
    <path id="Path_340" data-name="Path 340" d="M43.254,385.033a1.989,1.989,0,0,0,2.153.059c.406-.26,2.313-.546,2.822,0s-.255,2.146-2.511,2.873a7.577,7.577,0,0,0-2.873,1.456,5.8,5.8,0,0,1-3.057.873,3.07,3.07,0,0,1-1.309-.983,12.21,12.21,0,0,0,.218-1.762l.037-.894a5.343,5.343,0,0,0,2.51.219C42.627,386.656,43.254,385.033,43.254,385.033Z" transform="translate(-32.553 -324.845)" fill="#3b3a3a"/>
    <path id="Path_341" data-name="Path 341" d="M37.708,364.27a12.144,12.144,0,0,1,.438,2.4c0,.163.818,12.168.491,13.041a7.651,7.651,0,0,0-.764,3.711c0,2.237.764,9,.764,9a9.307,9.307,0,0,0,4.583-1.309c1.7-1.265.983-1.265.983-1.265s-1.256-3.046-.874-4.192a13.225,13.225,0,0,0,.382-4.147v-1.745s.492-.359,1.256-4.053.816-16.277.652-16.714-6.764-2.752-6.764-2.752S36.835,360.95,37.708,364.27Z" transform="translate(-32.709 -329.338)" fill="#3b3a3a"/>
    <g id="Group_111" data-name="Group 111" transform="translate(11.312 62.846)">
      <path id="Path_342" data-name="Path 342" d="M51.481,388.609l.755-.286s.427,1.486,0,2.141-3.065,1.8-3.81,2.054l-.747.255-.03.582a4.319,4.319,0,0,1-2.552.91,1.749,1.749,0,0,1-1.964-1.328l.174-1.514,4.992-.487Z" transform="translate(-43.132 -387.133)" fill="#3b3a3a"/>
      <path id="Path_343" data-name="Path 343" d="M43.742,390.364s-.375.177-.431.865-.054.961-.054.961.037,1.127,2.02.983a7.757,7.757,0,0,0,3.11-.891c.71-.219,3.292-1.2,3.583-1.71a2.644,2.644,0,0,0-.11-2.729c-.727-.764-.779-.545-1.325-.418s-2.108.837-2.756,1.109a19.712,19.712,0,0,1-2.921.565Z" transform="translate(-43.112 -387.295)" fill="#3b3a3a"/>
    </g>
    <g id="Group_113" data-name="Group 113" transform="translate(0 9.109)">
      <g id="Group_112" data-name="Group 112" transform="translate(0 0.29)">
        <path id="Path_344" data-name="Path 344" d="M35.213,357.187a4.677,4.677,0,0,0-1.064,1.661,5.056,5.056,0,0,0,.531,2.5,1.12,1.12,0,0,0,.532.395.769.769,0,0,0,.655-.168s.183.425.436.411a1.136,1.136,0,0,0,.5-.183s.522.429.646-.06-.646-1.274-.646-1.274v-1.537l.155-1.611Z" transform="translate(-33.242 -338.589)" fill="#e8a798"/>
        <path id="Path_345" data-name="Path 345" d="M40.428,341.846A2.019,2.019,0,0,0,38,341.329c-1.473.682-2.7,1.637-2.919,3.137a25.009,25.009,0,0,1-.682,4.066,20.66,20.66,0,0,0-.983,3.874c-.054.764.3,3.6.3,4.5v1.829s-.53,3.2-.306,3.564.524,1.379.77,1.417a3.66,3.66,0,0,0,.682,0s.573-1.388.355-1.37a1.107,1.107,0,0,0-.409.128l-.274.382-.109-.557a3.7,3.7,0,0,0,.382-.921c.054-.351.573-.678.737-1.115s.245.6.873.573a.891.891,0,0,1,.846.628c.081.108.137.762.409.954s.5.341.546.2a.724.724,0,0,0,0-.723,1.583,1.583,0,0,1-.2-.914,3.05,3.05,0,0,0-.2-.832l-1.759-2.141a14.711,14.711,0,0,1,.013-3.725,11.563,11.563,0,0,0,.3-2.4l1.772-4.119C38.386,347.194,40.886,343.974,40.428,341.846Z" transform="translate(-33.359 -341.119)" fill="#f0baae"/>
      </g>
      <path id="Path_346" data-name="Path 346" d="M41,341.5a4.027,4.027,0,0,0-5.1.655c-2.47,2.449-1.379,4.195-1.925,5.905a13.522,13.522,0,0,0-.616,2.473,1.345,1.345,0,0,0,1.853,1.379c1.891-.506,2.328-1.215,2.328-1.215s2.536-6.13,2.888-6.748A10.114,10.114,0,0,0,41,341.5Z" transform="translate(-33.359 -340.868)" fill="#fedd00"/>
    </g>
    <path id="Path_347" data-name="Path 347" d="M41.009,359.388a17.877,17.877,0,0,0,0,5.667c.549,2.292,4.151,13.533,3.387,16.862s-1.653,2.946-1.264,5.129a55.746,55.746,0,0,1,.554,7.094c0,1.037,0,1.183,0,1.183a1.6,1.6,0,0,0,2.132.946,5.082,5.082,0,0,0,3.166-2.893,2.857,2.857,0,0,0-.054-1.521s.109-3.226.436-6.118.382-5.184.927-6.276.273-1.2.546-2.674,1.473-7.585,1.036-9.822-1.528-9.495-1.528-9.495Z" transform="translate(-32.193 -329.145)" fill="#3e3e3e"/>
    <path id="Path_348" data-name="Path 348" d="M42.7,342.836S41,341,39.258,341.342a4.062,4.062,0,0,0-2.947,3.875c.056,1.539.273,4.486.764,5.413a24.568,24.568,0,0,1,1.091,5.692c.054,1.074.034,4.808.034,4.808s3.673,3.244,7.6,3,5.533-2.2,5.533-2.2a3.132,3.132,0,0,0,.582-1.918c-.11-.983-.438-2.553-.492-2.8s-.272-1.722-.272-1.722,1.91-6,1.146-7.1-.6-1.347-2.729-1.874S42.7,342.836,42.7,342.836Z" transform="translate(-32.894 -331.691)" fill="#fedd00"/>
    <path id="Path_349" data-name="Path 349" d="M41.259,341.115s.064,1.6-.41,1.891-.618,0-1.054.292-.037,1.127.326,1.564a5.054,5.054,0,0,0,3.347,1.31,4.7,4.7,0,0,0,2.455-.671c.456-.264.59-.036.59-.036s-.9-.639-.862-1a30,30,0,0,1,.273-3.129C46.07,340.97,41.259,341.115,41.259,341.115Z" transform="translate(-32.376 -331.724)" fill="#e8a798"/>
    <path id="Path_350" data-name="Path 350" d="M41.144,342.607a7.39,7.39,0,0,0-1.155-2,6.02,6.02,0,0,1,.059-5.271c2.027-2.873,4.71-2.536,6-1.905,2.82,1.383,2.8,2.52,2.567,4.5a5.941,5.941,0,0,1-1.292,3.419,13.527,13.527,0,0,0-1.818,1.692,1.3,1.3,0,0,1-1.875.348Z" transform="translate(-32.406 -332.998)" fill="#3b3a3a"/>
    <path id="Path_351" data-name="Path 351" d="M47.648,337.117l.378-.33a2.58,2.58,0,0,1,.186,1.44c-.186.564-.306.632-.256.8.249.844-.556,2.351-.767,2.967-.432,1.254-.832,1-1.323,1s-.764.414-1.3.466a2.749,2.749,0,0,1-1.358-.557,1.224,1.224,0,0,0,1.037-.056,4.975,4.975,0,0,0,.927-.672,1.379,1.379,0,0,1-.764-.163c-.291-.2-.672-2.044.219-1.887a3.146,3.146,0,0,1,1.4.595,22.805,22.805,0,0,1,.873-2.383A5.512,5.512,0,0,1,47.648,337.117Z" transform="translate(-31.808 -332.401)" fill="#f0baae"/>
    <path id="Path_352" data-name="Path 352" d="M52.25,346.573a34.3,34.3,0,0,1,1.71,3.783,39.98,39.98,0,0,1,.837,4.729c.146.8,3.565,2.838,3.565,2.838s1.129-3.057,0-5-3.928-7.4-3.928-7.4-1.514-3.383-1.867-3.456a.763.763,0,0,0-.478,0,.656.656,0,0,0-.566-.222,1.472,1.472,0,0,0-.431.135c-.03.019-.5-.125-.688-.053a2.079,2.079,0,0,0-.519.491s-.532-.655-.887-.641a2.188,2.188,0,0,0-.914.509s-.328.882-.231.922.374.119.491-.067.273-.46.273-.46h.245l.737.759.395,1.091s-.095-.259-.463-.123-.273.095-.247.463.082,1.056.259,1.2a10.29,10.29,0,0,0,1.431.741C51.056,346.808,52.25,346.573,52.25,346.573Z" transform="translate(-31.08 -331.617)" fill="#e8a798"/>
    <path id="Path_353" data-name="Path 353" d="M46.777,349.731a6.424,6.424,0,0,0,1.419,3.638,19.541,19.541,0,0,0,6.731,4.111c1.418.291,3.164.182,3.6-.328s-.036-3.492-1.2-4a12.59,12.59,0,0,1-3.711-2.293c-.727-.836-2.727-3.813-3.509-4.125S47.1,347.076,46.777,349.731Z" transform="translate(-31.246 -330.846)" fill="#f0baae"/>
    <path id="Path_354" data-name="Path 354" d="M47.505,347.6a3.8,3.8,0,0,0-.694,3.968,8.309,8.309,0,0,0,3.4,4.023s2.967.594,3.62-1.37a6.047,6.047,0,0,0,.183-3.456s-2.111-3.811-3.383-4.088S48.216,346.447,47.505,347.6Z" transform="translate(-31.28 -330.866)" fill="#fedd00"/>
  </g>
  <g id="Group_115" data-name="Group 115" transform="translate(57.794 27.532)">
    <path id="Path_355" data-name="Path 355" d="M108.718,334.2,82.957,319.332v-3.295l25.761,14.873Z" transform="translate(-82.957 -316.037)" fill="#70ce35"/>
  </g>
  <g id="Group_116" data-name="Group 116" transform="translate(57.794 33.534)">
    <path id="Path_356" data-name="Path 356" d="M101.058,334.875l-18.1-10.358v-3.295l18.1,10.358Z" transform="translate(-82.957 -321.222)" fill="#70ce35"/>
  </g>
  <g id="Group_117" data-name="Group 117" transform="translate(82.294 105.996)">
    <path id="Path_357" data-name="Path 357" d="M159.323,384.231a.97.97,0,0,1-.515.858l-2.425,1.289-5.59,6.515-2.527-6.106-.285-1.052s6.779-.17,7.665-.615c.552-.274,1.725-.839,2.536-1.227A1.009,1.009,0,0,1,159.323,384.231Z" transform="translate(-97.219 -383.827)" fill="#fecd46"/>
    <path id="Path_358" data-name="Path 358" d="M158.908,390.665l-1.4,1.971L108.13,420.914l-2.8-7.195,49.362-28.259c.022,0,2.817,1.617,2.817,1.617Z" transform="translate(-103.934 -383.57)" fill="#fedd00"/>
    <path id="Path_359" data-name="Path 359" d="M108.32,411.507l-2.8-1.615-1.4,1.972,1.4,3.587,2.8,1.615,1.4-1.972Z" transform="translate(-104.124 -379.723)" fill="#fecd46"/>
    <path id="Path_360" data-name="Path 360" d="M107.162,412.065l-.487-.281a.835.835,0,0,0-1.194,1.025l.431,1.1a.828.828,0,0,0,.36.419l.486.281a.834.834,0,0,0,1.194-1.024l-.429-1.1A.844.844,0,0,0,107.162,412.065Z" transform="translate(-103.919 -379.443)" fill="#fedd00"/>
    <path id="Path_361" data-name="Path 361" d="M157.132,386.856,107.72,415.1l1.432,3.621,49.379-28.277Z" transform="translate(-103.558 -383.35)" fill="#70ce35"/>
    <path id="Path_362" data-name="Path 362" d="M158.393,384.231a.97.97,0,0,1-.515.858l-2.425,1.289-.817.484.4-1.293-1.156.135.832-.583c.552-.274,1.725-.839,2.536-1.227A1.009,1.009,0,0,1,158.393,384.231Z" transform="translate(-96.289 -383.827)" fill="#fedd00"/>
  </g>
</svg>
